<svg width="218" height="37" viewBox="0 0 218 37" fill="none" xmlns="http://www.w3.org/2000/svg">
<path d="M1.70272 25.1651C2.0765 24.7494 2.94866 24.1466 3.63393 23.814C4.63068 23.3567 5.17059 23.232 6.33347 23.232C7.45482 23.232 8.03626 23.3567 8.88765 23.7517C9.46909 24.0427 10.3412 24.6455 10.7981 25.1028C11.2549 25.5601 11.8571 26.4331 12.1479 27.0151C12.5632 27.9297 12.667 28.4286 12.667 29.8836C12.667 31.0476 12.5424 32.0038 12.314 32.6898C12.0648 33.3757 11.5872 34.0824 10.9019 34.7476C10.3412 35.3088 9.48985 35.9532 9.03301 36.2026C8.36851 36.556 7.8286 36.6392 6.33347 36.6392C4.69298 36.6392 4.33996 36.5768 3.42627 36.0779C2.8656 35.7453 2.05574 35.101 1.64042 34.6229C1.22511 34.124 0.726731 33.3965 0.498308 33.0016C0.186823 32.4195 0.10376 31.8375 0.10376 29.9875C0.10376 28.0128 0.166057 27.5763 0.581371 26.8072C0.830559 26.3292 1.3497 25.6016 1.70272 25.1651Z" fill="black"/>
<path fill-rule="evenodd" clip-rule="evenodd" d="M30.2141 0.263392L31.5431 0.886981C32.3945 1.28192 33.2251 1.90551 33.8689 2.61224C34.4295 3.19426 35.094 4.12964 35.3432 4.67009C35.717 5.50154 35.8001 6.04198 35.8001 7.85039C35.8001 9.67958 35.717 10.1785 35.3432 10.9683C35.094 11.488 34.5749 12.2363 34.2219 12.652C33.8481 13.047 33.2044 13.629 32.8098 13.92C32.4153 14.211 31.2316 14.8762 30.2141 15.3958C29.1966 15.9155 27.9091 16.5391 27.3484 16.7677C26.8085 17.0171 25.9364 17.3913 25.3965 17.6407C24.8358 17.8694 24.2128 18.1396 23.9844 18.2435C23.756 18.3267 23.2368 18.5553 22.8423 18.7216C22.4477 18.8879 20.8072 19.5323 19.2083 20.1767C17.6093 20.8003 15.9273 21.4446 15.4704 21.5901C14.9305 21.7772 13.6431 21.8811 11.8364 21.8811C9.46916 21.8811 8.80466 21.798 7.57948 21.4031C6.79038 21.1328 5.52368 20.53 4.79688 20.0519C4.07008 19.5739 3.13562 18.8048 2.72031 18.3267C2.30499 17.8694 1.66126 16.8716 1.26671 16.1441C0.872159 15.4166 0.43608 14.2941 0.29072 13.6706C0.14536 13.047 0.0207657 11.9453 0 11.2178C0 10.511 0.103828 9.43015 0.228423 8.84813C0.353017 8.24533 0.768331 7.06051 1.16288 6.24985C1.64049 5.21053 2.26346 4.33751 3.17715 3.42291C4.00778 2.59146 4.98377 1.86394 5.91822 1.40664C6.70732 1.0117 7.84943 0.575187 8.41011 0.429683C9.15767 0.263392 12.3348 0.201033 30.2141 0.263392V0.263392ZM111.678 0.159461C112.758 0.138675 113.194 0.242606 114.211 0.990913L114.253 6.89422C114.294 10.1369 114.377 12.8807 114.461 12.9846C114.544 13.0677 115.104 12.6728 115.706 12.0908C116.309 11.5088 117.222 10.802 117.742 10.4902C118.261 10.1992 119.216 9.8043 119.86 9.61723C120.566 9.43015 121.915 9.30543 123.078 9.30543C124.511 9.30543 125.529 9.43015 126.463 9.72116C127.211 9.94981 128.062 10.3032 128.353 10.4902C128.644 10.6981 129.163 11.0931 129.495 11.3841C129.848 11.6751 130.45 12.3818 130.865 12.943C131.281 13.525 131.841 14.5851 132.111 15.3335C132.589 16.6638 132.589 16.8509 132.651 25.7266C132.693 30.6945 132.651 34.9765 132.589 35.2467C132.527 35.5169 132.194 35.8287 131.758 36.0158C131.364 36.1821 130.658 36.3276 130.201 36.3276C129.744 36.3276 129.038 36.1821 128.644 36.0158C128.249 35.8495 127.854 35.5793 127.751 35.4546C127.668 35.3091 127.564 31.4428 127.501 26.8698C127.398 18.9295 127.356 18.5138 126.941 17.4121C126.65 16.7054 126.131 15.9363 125.591 15.4374C125.093 14.9801 124.511 14.502 124.283 14.3773C124.054 14.2526 123.307 14.0239 122.621 13.8784C121.666 13.6913 121.085 13.6913 120.13 13.8784C119.444 14.0031 118.385 14.3773 117.783 14.7099C117.202 15.0632 116.413 15.7284 116.059 16.2273C115.706 16.7054 115.291 17.4329 115.104 17.8278C114.938 18.2228 114.668 19.2413 114.502 20.0727C114.294 21.1744 114.211 23.3154 114.232 35.1844L113.671 35.704C113.277 36.0782 112.862 36.2445 112.072 36.3068C111.387 36.3484 110.702 36.2445 110.204 36.0366C109.601 35.7664 109.394 35.5377 109.228 34.9141C109.061 34.3945 109.02 28.7198 109.124 1.1572L109.705 0.658332C110.204 0.242606 110.515 0.159461 111.678 0.159461V0.159461ZM61.4665 9.32622C63.0031 9.32622 64.2906 9.43015 65.1005 9.63801C65.7857 9.82509 66.9278 10.2408 67.6546 10.5734C68.3607 10.906 69.482 11.6751 70.1465 12.2779C70.7903 12.9015 71.7247 14.0031 72.2023 14.7307C72.6592 15.4582 73.2199 16.5391 73.4483 17.1211C73.8013 18.1396 73.8013 18.202 73.469 18.7424C73.116 19.2413 72.9914 19.2829 71.434 19.2829C70.4373 19.2829 69.5443 19.1581 69.2121 18.9918C68.8798 18.8463 68.3814 18.2435 68.07 17.7031C67.7585 17.1419 67.1147 16.2896 66.6164 15.7908C66.118 15.2919 65.3497 14.7307 64.8928 14.5228C64.436 14.2941 63.46 14.0239 62.7124 13.8784C61.6326 13.6706 61.1135 13.6706 60.1167 13.8784C59.4314 14.0239 58.4554 14.3357 57.9571 14.5851C57.4379 14.8138 56.6488 15.4166 56.192 15.8739C55.7144 16.352 55.0706 17.2874 54.7384 17.9525C54.3854 18.68 54.0116 19.948 53.8247 21.0497C53.5547 22.7334 53.5547 23.1075 53.8662 24.9367C54.0531 26.0592 54.4269 27.4103 54.6969 27.9507C54.9668 28.512 55.4444 29.2603 55.7767 29.6552C56.1089 30.0502 56.7734 30.6322 57.2718 30.944C57.7494 31.2765 58.6839 31.6923 59.3484 31.8586C59.9921 32.0249 61.0096 32.1704 61.5703 32.1704C62.1517 32.1704 63.1277 32.0248 63.7507 31.8378C64.3737 31.6507 65.1835 31.2973 65.5158 31.0687C65.848 30.84 66.2841 30.4867 66.471 30.3204C66.6579 30.1333 67.2393 29.3018 67.7585 28.4704C68.3191 27.6182 68.9629 26.8906 69.2536 26.7659C69.5443 26.6412 70.4165 26.5581 71.2263 26.5581C72.0362 26.5581 72.8668 26.6412 73.0953 26.7659C73.4067 26.9322 73.5106 27.1816 73.5106 27.8468C73.5106 28.3872 73.3029 29.1979 72.9707 29.8839C72.6799 30.5075 72.0362 31.526 71.5586 32.1496C71.1018 32.7732 70.1465 33.6878 69.4613 34.2074C68.776 34.7063 67.8831 35.2675 67.4885 35.4338C67.094 35.6001 66.3879 35.8703 65.9311 36.0158C65.4743 36.1613 64.4983 36.4108 63.7507 36.5563C62.9408 36.7018 61.6949 36.7641 60.6358 36.681C59.6599 36.6186 58.3101 36.4108 57.6248 36.2237C56.9395 36.0366 55.7767 35.6001 55.0291 35.2259C54.1293 34.7825 53.1602 34.0411 52.1219 33.0018C50.959 31.8586 50.3568 31.0271 49.7961 29.8839C49.3808 29.0316 48.8825 27.7221 48.6956 26.9738C48.4464 26.0592 48.3218 24.7912 48.3218 23.0244C48.3218 21.2368 48.4256 20.0104 48.6748 19.075C48.8825 18.3267 49.3808 17.0171 49.7961 16.1649C50.3361 15.0217 50.959 14.1902 52.1011 13.0262C52.9733 12.1739 54.0946 11.2386 54.6138 10.9475C55.1329 10.6565 56.0259 10.2616 56.5865 10.0745C57.168 9.88745 57.9571 9.63801 58.3516 9.53408C58.7462 9.43015 60.1582 9.32622 61.4665 9.32622V9.32622ZM90.8499 9.32622C92.1166 9.32622 93.6533 9.45093 94.2763 9.59644C94.8992 9.76273 95.6053 9.94981 95.8337 10.033C96.0621 10.1369 96.6228 10.3655 97.0796 10.5734C97.5365 10.7605 98.4917 11.3633 99.2185 11.8829C99.9245 12.4026 100.942 13.4211 101.461 14.1279C101.98 14.8554 102.603 15.8115 102.832 16.2688C103.081 16.7261 103.434 17.6199 103.621 18.2435C103.828 18.8671 104.119 20.1767 104.265 21.1536C104.472 22.5671 104.472 23.2738 104.285 24.6873C104.14 25.6642 103.891 26.8698 103.745 27.3895C103.6 27.9092 103.164 28.9693 102.769 29.7384C102.375 30.5282 101.607 31.6923 101.025 32.3159C100.464 32.9602 99.4262 33.8748 98.7409 34.3529C98.0556 34.831 97.0381 35.413 96.4567 35.6625C95.896 35.8911 94.7331 36.2445 93.9233 36.4108C93.0926 36.5978 91.7636 36.7433 90.9538 36.7433C90.1439 36.7433 89.0018 36.6394 88.4203 36.5147C87.8181 36.39 86.9252 36.1613 86.4476 35.995C85.9492 35.8287 85.1601 35.4962 84.6825 35.2675C84.1841 35.0181 83.395 34.54 82.9174 34.2282C82.4191 33.8956 81.9207 33.4175 81.7961 33.1473C81.6715 32.8979 81.63 32.4406 81.6923 32.108C81.7753 31.7338 82.1906 31.2973 82.9174 30.7777C83.665 30.258 84.2257 30.0294 84.7241 30.0294C85.2224 30.0294 85.7831 30.258 86.4891 30.7569C87.0706 31.1518 87.9427 31.6091 88.4619 31.7754C89.0018 31.9417 90.1854 32.0664 91.2652 32.0456C92.8019 32.0456 93.3211 31.9625 94.1724 31.526C94.7331 31.2558 95.626 30.653 96.1452 30.1749C96.6643 29.6968 97.3288 28.8653 97.6403 28.3041C97.9518 27.7429 98.3464 26.7243 98.5125 26.0384C98.6994 25.3524 98.8447 23.939 98.8447 22.9205C98.8447 21.8604 98.7201 20.5508 98.5332 19.9064C98.3464 19.2829 97.9933 18.3475 97.7441 17.8486C97.495 17.3289 96.8928 16.5183 96.4151 16.0194C95.9168 15.5205 95.0861 14.8969 94.5462 14.6267C93.9856 14.3565 92.9473 14.0239 92.1997 13.8784C91.1407 13.6913 90.58 13.6913 89.604 13.8784C88.9187 14.0239 87.9427 14.3357 87.4236 14.5851C86.9252 14.8138 86.0531 15.4582 85.5131 15.9986C84.9525 16.5598 84.2464 17.5784 83.9142 18.2851C83.5612 19.075 83.2082 20.2598 83.0836 21.2575C82.9382 22.3384 82.9174 23.357 83.042 24.1676C83.1459 24.8536 83.312 25.789 83.3743 26.2463C83.4573 26.7036 83.4781 27.3271 83.3951 27.6389C83.312 28.0547 82.8551 28.512 81.9207 29.1563C81.1731 29.676 80.3425 30.0917 80.0518 30.0917C79.7195 30.0917 79.3665 29.8631 79.0135 29.4058C78.7435 29.0524 78.3075 27.9923 78.079 27.0777C77.8298 26.1631 77.6014 24.6665 77.5184 23.7519C77.4561 22.6502 77.5184 21.5278 77.726 20.4261C77.9129 19.5115 78.2659 18.202 78.5151 17.516C78.7643 16.8301 79.3042 15.7492 79.6988 15.1256C80.0933 14.502 80.9032 13.525 81.4846 12.9638C82.066 12.4026 82.9174 11.6959 83.3743 11.3841C83.8311 11.0931 84.5372 10.6981 84.9317 10.511C85.3263 10.324 85.9908 10.0745 86.3853 9.94981C86.7799 9.82509 87.4444 9.63801 87.8389 9.53408C88.2335 9.43015 89.604 9.347 90.8499 9.32622V9.32622ZM150.655 9.32622C152.067 9.32622 153.459 9.43015 154.289 9.63801C155.037 9.8043 156.2 10.22 156.885 10.5734C157.57 10.906 158.567 11.5296 159.086 11.9453C159.605 12.3818 160.373 13.1509 160.789 13.6706C161.204 14.1902 161.827 15.1672 162.159 15.8531C162.512 16.5391 162.948 17.7031 163.135 18.4514C163.343 19.1997 163.509 20.5924 163.509 21.5486C163.53 23.1699 163.488 23.3154 163.011 23.6895C162.512 24.0637 162.035 24.0845 152.939 24.0845C147.208 24.0637 143.304 24.1468 143.179 24.2716C143.041 24.3963 143.048 24.8605 143.2 25.6642C143.325 26.3294 143.657 27.3895 143.927 28.0131C144.218 28.6367 144.82 29.5305 145.277 30.0086C145.713 30.4659 146.502 31.0895 147.021 31.4013C147.54 31.6923 148.599 32.0664 149.409 32.2119C150.551 32.399 151.174 32.4198 152.379 32.2119C153.189 32.0664 154.248 31.7754 154.704 31.5468C155.161 31.3181 155.909 30.7777 156.386 30.3412C156.843 29.9254 157.508 29.1563 157.819 28.6367C158.152 28.117 158.65 27.5766 158.941 27.4311C159.231 27.3064 160.124 27.1816 160.934 27.1816C162.118 27.1816 162.471 27.2648 162.803 27.5974C163.032 27.826 163.218 28.2002 163.218 28.4288C163.218 28.6575 162.928 29.4266 162.554 30.1333C162.139 30.9647 161.329 32.0041 160.332 33.0018C159.273 34.0411 158.297 34.7894 157.404 35.2259C156.656 35.6001 155.494 36.0366 154.808 36.2237C154.123 36.4108 152.773 36.6186 151.797 36.681C150.801 36.7433 149.409 36.7018 148.579 36.5563C147.769 36.4108 146.71 36.1613 146.191 35.995C145.671 35.808 144.695 35.3714 144.01 35.0181C143.325 34.6439 142.141 33.7501 141.394 33.0018C140.418 32.0249 139.795 31.1726 139.172 29.8839C138.673 28.9069 138.154 27.5558 137.988 26.8698C137.822 26.1839 137.635 24.8744 137.552 23.9598C137.469 23.0244 137.51 21.6525 137.656 20.7795C137.78 19.9688 138.03 18.8463 138.196 18.2851C138.383 17.7447 138.819 16.7054 139.192 15.957C139.629 15.084 140.397 14.0655 141.414 13.0262C142.557 11.8621 143.387 11.2386 144.529 10.6773C145.381 10.2616 146.606 9.78352 147.229 9.63801C147.852 9.47172 149.409 9.347 150.655 9.32622V9.32622ZM147.436 14.2526C146.917 14.4812 146.066 15.084 145.526 15.6245C144.924 16.1857 144.28 17.1211 143.906 17.9317C143.574 18.68 143.283 19.5115 143.283 19.8025C143.283 20.1767 143.429 20.3637 143.761 20.4261C144.01 20.4885 147.312 20.5092 151.07 20.4885L157.923 20.4261C157.882 18.9503 157.653 18.1188 157.342 17.516C157.051 16.934 156.449 16.1025 155.992 15.6453C155.535 15.188 154.767 14.6059 154.268 14.3565C153.77 14.1071 152.836 13.7953 152.213 13.6706C151.59 13.5666 150.842 13.4627 150.551 13.4835C150.261 13.5043 149.658 13.5874 149.202 13.6706C148.745 13.7537 147.956 14.0239 147.436 14.2526V14.2526ZM187.057 9.32622C188.906 9.30543 188.989 9.32622 189.383 9.86666C189.715 10.324 189.819 10.7605 189.798 11.8414C189.798 13.047 189.736 13.338 189.279 13.7745C188.843 14.2318 188.594 14.2941 187.369 14.2941C186.601 14.2941 185.438 14.3773 184.815 14.502C184.192 14.6267 183.174 14.9385 182.572 15.2295C181.824 15.5829 181.222 16.1025 180.579 16.9132C180.018 17.6407 179.499 18.6177 179.229 19.4699C179 20.2182 178.73 21.2575 178.647 21.7772C178.564 22.2969 178.294 22.9412 178.045 23.2322C177.63 23.6895 177.422 23.7519 176.031 23.7519C174.64 23.7519 174.411 23.6895 173.373 22.7126L173.394 19.1166C173.394 16.7885 173.311 15.375 173.144 15.0632C173.02 14.8138 172.771 14.502 172.584 14.3565C172.376 14.1902 171.483 14.1071 170.216 14.0863C169.116 14.0863 167.995 13.9823 167.725 13.8784C167.475 13.7537 167.143 13.4419 166.998 13.1509C166.873 12.8599 166.749 12.2363 166.749 11.7374C166.728 11.0931 166.873 10.7189 167.787 9.72116H172.563C177.277 9.72116 177.339 9.72116 177.713 10.1785C177.941 10.4695 178.128 11.2178 178.232 12.1116C178.315 12.9015 178.481 13.6498 178.606 13.7745C178.772 13.92 178.917 13.8576 179.083 13.5874C179.208 13.3588 179.727 12.7144 180.246 12.1532C180.765 11.5919 181.534 10.906 181.949 10.6358C182.385 10.3655 183.278 9.94981 183.922 9.74194C184.752 9.47172 185.728 9.32622 187.037 9.32622H187.057ZM204.978 9.32622C206.764 9.30543 207.74 9.40936 208.861 9.72116C209.692 9.94981 210.813 10.3655 211.353 10.6358C211.914 10.906 212.848 11.5088 213.43 11.9869C214.032 12.4442 214.946 13.4211 215.444 14.1279C215.943 14.8554 216.565 15.957 216.815 16.5806C217.064 17.2042 217.396 18.2435 217.541 18.8671C217.687 19.4907 217.874 20.5716 217.957 21.2575C218.04 22.0059 217.998 22.7334 217.874 23.066C217.749 23.3985 217.458 23.7311 217.23 23.8558C216.981 23.9806 213.284 24.0637 207.408 24.0637C202.258 24.0429 197.856 24.1261 197.648 24.2092C197.336 24.3547 197.274 24.521 197.399 25.2069C197.461 25.6642 197.669 26.4957 197.856 27.0777C198.042 27.6389 198.437 28.4912 198.769 28.9485C199.081 29.4058 199.641 30.0709 200.036 30.4451C200.41 30.8192 201.24 31.3389 201.863 31.6299C202.507 31.9417 203.587 32.2119 204.355 32.2951C205.103 32.3574 206.224 32.3366 206.847 32.2119C207.47 32.108 208.405 31.7962 208.924 31.5676C209.443 31.3181 210.149 30.8608 210.502 30.549C210.834 30.2372 211.519 29.4473 211.997 28.7822C212.475 28.1378 213.056 27.4934 213.284 27.3895C213.513 27.2648 214.323 27.1816 215.091 27.1816C216.005 27.1816 216.669 27.2856 216.96 27.4934C217.292 27.7013 217.438 28.0131 217.438 28.4704C217.438 28.8653 217.105 29.7384 216.669 30.5075C216.233 31.2558 215.32 32.4198 214.614 33.1057C213.928 33.7917 212.786 34.6439 212.122 35.0181C211.457 35.3714 210.481 35.808 209.962 35.995C209.443 36.1613 208.425 36.4108 207.678 36.5563C206.847 36.7018 205.601 36.7641 204.459 36.681C203.421 36.6186 202.029 36.4108 201.344 36.2237C200.659 36.0366 199.496 35.6001 198.749 35.2259C197.814 34.7686 196.9 34.0827 195.737 32.8979C194.595 31.7754 193.848 30.7985 193.391 29.8839C193.038 29.1356 192.54 27.7844 192.311 26.8698C192.041 25.7682 191.896 24.5002 191.896 23.1283C191.896 21.9851 192.02 20.4469 192.187 19.6986C192.332 18.9503 192.643 17.8694 192.872 17.3082C193.079 16.7261 193.516 15.8323 193.827 15.2711C194.139 14.7307 194.886 13.7953 195.468 13.1925C196.07 12.5897 197.025 11.779 197.606 11.3841C198.167 11.0099 198.977 10.5526 199.371 10.3863C199.766 10.1992 200.659 9.90823 201.344 9.70037C202.196 9.45093 203.338 9.32622 204.978 9.32622V9.32622ZM202.549 13.9408C202.113 14.0447 201.282 14.4812 200.68 14.8969C200.057 15.3127 199.268 16.1441 198.852 16.7885C198.437 17.4121 197.939 18.4306 197.752 19.0334C197.44 20.0104 197.44 20.1559 197.71 20.3222C197.876 20.4469 200.97 20.53 204.771 20.53C208.488 20.53 211.727 20.4885 211.976 20.4261C212.392 20.343 212.433 20.239 212.329 19.5323C212.246 19.1166 211.976 18.2851 211.706 17.7239C211.436 17.1419 210.876 16.2688 210.44 15.77C209.962 15.2295 209.152 14.6475 208.405 14.2941C207.553 13.8784 206.702 13.6706 205.705 13.6082C204.916 13.5458 204.044 13.5458 203.795 13.629C203.545 13.6913 202.985 13.8368 202.549 13.9408V13.9408ZM176.425 25.6227C177.443 25.685 177.754 25.789 178.128 26.2255C178.564 26.7036 178.606 26.9946 178.606 28.7822C178.606 30.2164 178.689 30.944 178.897 31.235C179.166 31.6091 179.499 31.6715 182.219 31.7546C184.752 31.8378 185.292 31.9209 185.604 32.2327C185.832 32.4614 185.998 33.0226 186.061 33.6878C186.102 34.2906 186.04 34.9765 185.895 35.2259C185.77 35.4962 185.334 35.8495 184.939 36.0158C184.337 36.2653 182.842 36.3276 176.155 36.3276C171.275 36.3276 167.849 36.2445 167.434 36.1198C167.081 36.0158 166.665 35.7248 166.562 35.4962C166.458 35.2675 166.354 34.5816 166.354 33.9788C166.333 33.2097 166.458 32.7524 166.749 32.3782C167.122 31.8793 167.268 31.8586 169.863 31.7546C172.085 31.6715 172.625 31.5883 172.937 31.2765C173.248 30.9855 173.331 30.4867 173.373 28.6783C173.414 26.9114 173.497 26.3918 173.788 26.1008C173.975 25.9137 174.37 25.7266 174.66 25.6642C174.951 25.6019 175.74 25.5811 176.425 25.6227Z" fill="black"/>
<path d="M22.323 21.2574C24.0258 20.5299 25.6247 19.9063 25.8532 19.8439C26.0816 19.7816 27.1614 19.74 28.262 19.7608C30.0686 19.8024 30.3593 19.8647 31.7922 20.5507C32.8927 21.1119 33.5988 21.6315 34.3048 22.4214C34.824 23.045 35.4677 24.022 35.7169 24.5832C35.9868 25.1652 36.2983 26.1422 36.4437 26.7658C36.6306 27.5764 36.6306 28.3039 36.4852 29.2601C36.3814 30.0084 36.0491 31.1725 35.7376 31.8584C35.3846 32.6275 34.7201 33.5421 34.0349 34.228C33.3911 34.8932 32.3528 35.6207 30.214 36.6392H25.1264C20.1634 36.6392 20.018 36.6185 19.0005 36.1404C18.4398 35.8702 17.4638 35.1634 16.8616 34.5814C16.0518 33.8123 15.6157 33.1679 15.2419 32.1702C14.785 31.0062 14.7228 30.5697 14.785 29.0523C14.8473 27.8051 14.9927 27.0152 15.325 26.35C15.5534 25.8304 16.1556 24.9574 16.654 24.3961C17.1523 23.8349 17.9207 23.1905 18.3775 22.9619C18.8344 22.7332 20.5994 21.9641 22.323 21.2574Z" fill="black"/>
</svg>
