<svg width="101" height="94" viewBox="0 0 101 94" fill="none" xmlns="http://www.w3.org/2000/svg">
<path id="Vector (Traced)" fill-rule="evenodd" clip-rule="evenodd" d="M48.8014 0.97928C46.3784 2.17714 44.5898 3.57827 43.3611 5.24147L42.4317 6.49946L38.9675 6.37098C35.6152 6.24649 33.1835 5.84949 29.1663 4.77058C27.3513 4.28305 23.5403 3.78109 21.6179 3.77643C19.3362 3.77088 18.1122 4.22934 16.5524 5.67352C14.7638 7.3294 13.9037 9.23603 13.6314 12.1477C13.3793 14.8452 13.269 15.3614 12.6384 16.7907C12.0443 18.1379 11.8945 18.2326 9.24384 18.9398C5.82379 19.8523 5.32982 20.258 2.47076 24.5013C1.37498 26.1277 0.838627 27.1928 0.413451 28.5871C-0.25427 30.776 -0.200124 31.1339 1.22364 33.9473C1.97568 35.4336 2.96672 38.3206 3.96953 41.9466C4.4342 43.6275 6.50416 47.7839 7.98406 50.0076C8.8981 51.3815 9.207 52.047 9.207 52.6421C9.207 53.0799 8.60785 55.2961 7.87555 57.5669C6.11937 63.0128 6.13313 64.0477 7.98895 66.1019C9.24539 67.4929 10.9439 67.7558 12.6211 66.8192C12.9808 66.6181 13.9092 65.481 14.7398 64.2242C16.1638 62.0692 16.2282 61.9121 16.49 59.9451C16.6396 58.822 17.0605 57.0847 17.4258 56.0844C18.1128 54.2017 21.8688 46.9644 24.0753 43.2721C24.7681 42.1126 25.5894 40.6023 25.9002 39.9159C26.2114 39.2293 27.1141 37.6316 27.9065 36.3654C28.699 35.099 29.7202 33.3139 30.1757 32.3986C31.7872 29.1605 33.8801 26.4834 39.4564 20.5254C40.8915 18.9922 45.1845 15.7468 49.1504 13.1969C50.0658 12.6084 51.364 11.6615 52.0352 11.0925C52.7065 10.5238 54.0171 9.70337 54.9473 9.26954L56.6392 8.4811L56.7992 5.70747C56.9674 2.79005 56.8937 2.40881 55.9652 1.38914C55.3272 0.68858 53.3398 0 51.9553 0C51.016 0 50.3882 0.194835 48.8014 0.97928ZM55.211 11.272C54.3335 11.7467 53.2537 12.4528 52.8115 12.8414C52.3692 13.2297 50.7404 14.3892 49.1919 15.4177C45.038 18.1776 42.9308 19.6895 41.9677 20.6015C40.5972 21.899 35.5042 27.6366 34.2866 29.2548C32.5597 31.55 30.8681 34.99 31.9637 33.9792C32.4137 33.564 34.8968 32.8067 37.8859 32.1731C39.6042 31.809 41.0324 31.5109 41.0594 31.5109C41.0867 31.5109 41.2166 31.0866 41.3479 30.5678C41.8663 28.5207 45.6405 23.8855 48.1891 22.1657C50.9408 20.3088 51.8406 19.9764 54.1218 19.9739C55.8494 19.9719 56.2708 20.0536 57.4775 20.6237C58.2365 20.9823 59.0551 21.5473 59.297 21.8792L59.7366 22.4828L61.767 20.7131C62.8837 19.7396 64.4213 18.5726 65.1837 18.1195C66.4029 17.3951 69.5005 16.2794 71.452 15.8618C72.0724 15.7288 72.0897 15.6991 71.7078 15.4199C71.4826 15.2551 69.8083 14.3583 67.9871 13.427C64.3016 11.5421 61.6008 10.7073 58.5815 10.5193C56.8484 10.4115 56.7685 10.4292 55.211 11.272ZM74.337 17.2875C74.0929 17.388 73.294 17.5414 72.5617 17.6284C69.7237 17.9652 66.8858 19.0725 64.684 20.7018C63.2971 21.7281 61.1335 23.8866 61.1335 24.2439C61.1335 24.3748 61.4417 24.9624 61.8185 25.5496C62.616 26.7923 63.4109 29.5042 63.8154 32.3628C64.0766 34.2082 64.0609 34.5799 63.6277 36.8152C62.962 40.2494 62.0005 42.234 60.0865 44.1244C58.7879 45.4066 58.3685 45.6769 57.0282 46.0943C53.8251 47.0913 50.4129 46.9484 47.9299 45.713C44.2898 43.9021 41.3837 39.3063 41.3837 35.361C41.3837 34.1658 41.2998 33.6839 41.077 33.5984C40.6314 33.4273 35.5224 34.5473 34.386 35.0648C33.8543 35.3071 33.3235 35.5053 33.2066 35.5053C33.0896 35.5053 32.36 35.8652 31.5855 36.3053C30.8111 36.7451 29.9685 37.186 29.7135 37.2848C29.417 37.3997 28.7542 38.4373 27.8783 40.1578C27.1241 41.639 26.2753 43.2201 25.9921 43.6717C24.933 45.3593 21.07 52.5611 20.0765 54.7003C18.8531 57.3339 18.6328 58.0695 18.2948 60.6477C18.042 62.5738 18.0465 62.612 18.6039 63.4215C18.915 63.8729 19.4984 65.191 19.9005 66.3505L20.6319 68.4586L20.6335 73.3406C20.6353 78.0299 20.6104 78.3102 20.0079 80.4416C18.9698 84.1144 17.7196 87.704 17.11 88.7632C16.4978 89.8268 16.3282 91.5222 16.7545 92.3186C17.2321 93.2111 20.0778 93.461 22.8543 92.8543C24.875 92.4127 26.3931 92.1382 28.8459 91.7714C31.0911 91.4354 35.3194 90.483 36.8998 89.9573C37.4741 89.7662 38.6431 89.1861 39.4974 88.6682C40.3518 88.1503 41.523 87.4575 42.1004 87.1286C42.6776 86.7997 43.7973 86.0344 44.5887 85.4279C45.3802 84.8212 46.0726 84.325 46.1276 84.325C46.3602 84.325 47.7995 87.2165 48.2479 88.5848C49.0597 91.0619 50.0376 91.8699 52.2243 91.8699C55.0565 91.8699 60.2953 87.8296 64.5138 82.392C64.9126 81.8781 65.3011 81.4535 65.3772 81.4489C65.6679 81.4307 69.566 87.7526 69.566 88.2422C69.566 88.3982 69.8749 88.8777 70.2523 89.3075C71.8387 91.1145 74.0205 90.8047 75.5479 88.5553C76.7312 86.8128 79.732 83.6593 80.2067 83.6593C80.4195 83.6593 81.4327 84.2846 82.4584 85.0489C86.3222 87.9286 86.6935 88.077 87.6468 87.1237C88.4111 86.3595 88.5227 85.3194 88.107 82.8411C87.9062 81.6435 87.5023 79.1 87.2099 77.1891C86.6442 73.4966 86.2452 72.1114 84.4513 67.6151C82.6337 63.0589 81.4245 60.6428 79.5241 57.7693C77.7022 55.0148 77.3465 54.1356 77.3392 52.3703C77.3305 50.2302 77.9954 48.915 79.8108 47.4799L80.905 46.6151L82.651 46.7125C84.1109 46.794 84.9908 47.0338 88.0214 48.1769C94.5357 50.6339 95.108 50.8107 96.5504 50.814C98.2616 50.8178 99.2007 50.2448 99.9454 48.7432C100.954 46.7101 100.602 42.9698 98.8427 37.0189C98.578 36.1235 98.0277 35.0253 97.4529 34.2451C96.9294 33.5345 95.7908 31.9547 94.923 30.7343C91.9143 26.5045 87.9255 23.2322 81.1633 19.4462C77.9634 17.6548 75.4079 16.8466 74.337 17.2875ZM51.3695 22.3623C48.672 23.7581 45.3503 26.9791 43.747 29.7534C43.1336 30.815 43.1156 30.9346 43.1458 33.768C43.1747 36.4985 43.2219 36.7979 43.8724 38.3714C44.7225 40.4281 45.6647 41.7205 47.3281 43.1116C48.9083 44.4333 50.1654 44.8254 52.8232 44.8254C57.9624 44.8254 60.6419 42.3554 61.8125 36.5391C62.2667 34.2832 62.2699 34.1441 61.9153 32.0619C61.3512 28.7508 60.8388 27.3843 59.2981 25.0809C57.4948 22.385 57.045 22.1122 54.2599 22.0259C52.5623 21.9733 51.9933 22.0397 51.3695 22.3623ZM76.6948 25.6184C78.2219 25.9169 80.0187 26.366 80.688 26.6165C82.6013 27.3324 87.6512 30.7789 89.6762 32.751C92.7937 35.7873 93.7539 37.6979 93.7539 40.8659C93.7539 41.823 93.6974 42.6063 93.6281 42.6063C93.5591 42.6063 93.1845 42.3653 92.796 42.0706C91.5025 41.0896 88.1175 39.51 86.34 39.0582C83.9483 38.4502 81.9436 38.4762 80.1181 39.1388C77.8653 39.9563 75.0202 42.2932 73.9824 44.1781C73.2481 45.5118 72.7026 45.5579 71.4391 44.3931C70.5417 43.5661 69.4477 42.8143 66.9275 41.2931C65.7738 40.5967 65.436 39.8143 65.7995 38.6806C65.9486 38.2157 66.9929 35.938 68.1202 33.6191C69.5047 30.7709 70.302 28.8307 70.577 27.6397C70.8009 26.67 71.1644 25.6963 71.3845 25.4761C71.9391 24.9216 73.3207 24.9587 76.6948 25.6184ZM56.563 27.4103C57.039 27.6362 57.5554 28.2285 58.1239 29.2002C58.9051 30.5354 58.9634 30.7502 58.8485 31.8644C58.6559 33.7293 58.1142 34.6143 56.7255 35.3331C54.3848 36.5442 51.2219 35.9786 50.1519 34.1574C49.4529 32.9675 49.5368 30.5845 50.325 29.2393C51.3247 27.5335 51.9471 27.2501 54.9975 27.1116C55.4673 27.0903 56.1716 27.2248 56.563 27.4103Z" fill="white"/>
</svg>
