<svg width="22" height="23" viewBox="0 0 22 23" fill="none" xmlns="http://www.w3.org/2000/svg">
<path d="M20.4375 9.24963H13.4062V2.21838C13.4062 1.35559 12.7065 0.655884 11.8438 0.655884H10.2812C9.41846 0.655884 8.71875 1.35559 8.71875 2.21838V9.24963H1.6875C0.824707 9.24963 0.125 9.94934 0.125 10.8121V12.3746C0.125 13.2374 0.824707 13.9371 1.6875 13.9371H8.71875V20.9684C8.71875 21.8312 9.41846 22.5309 10.2812 22.5309H11.8438C12.7065 22.5309 13.4062 21.8312 13.4062 20.9684V13.9371H20.4375C21.3003 13.9371 22 13.2374 22 12.3746V10.8121C22 9.94934 21.3003 9.24963 20.4375 9.24963Z" fill="white"/>
</svg>
