<svg width="34" height="24" viewBox="0 0 34 24" fill="none" xmlns="http://www.w3.org/2000/svg">
<path id="Vector" d="M5.27318 9.95504C7.08047 9.95504 8.54986 8.48566 8.54986 6.67836C8.54986 4.87107 7.08047 3.40168 5.27318 3.40168C3.46588 3.40168 1.99649 4.87107 1.99649 6.67836C1.99649 8.48566 3.46588 9.95504 5.27318 9.95504ZM28.2099 9.95504C30.0172 9.95504 31.4866 8.48566 31.4866 6.67836C31.4866 4.87107 30.0172 3.40168 28.2099 3.40168C26.4026 3.40168 24.9333 4.87107 24.9333 6.67836C24.9333 8.48566 26.4026 9.95504 28.2099 9.95504ZM29.8483 11.5934H26.5716C25.6705 11.5934 24.8565 11.9569 24.2626 12.5457C26.3259 13.6771 27.7901 15.72 28.1075 18.1467H31.4866C32.3928 18.1467 33.125 17.4146 33.125 16.5084V14.8701C33.125 13.0628 31.6556 11.5934 29.8483 11.5934ZM16.7416 11.5934C19.9107 11.5934 22.4758 9.02836 22.4758 5.85919C22.4758 2.69003 19.9107 0.125 16.7416 0.125C13.5724 0.125 11.0074 2.69003 11.0074 5.85919C11.0074 9.02836 13.5724 11.5934 16.7416 11.5934ZM20.6736 13.2317H20.2486C19.1837 13.7437 18.001 14.0509 16.7416 14.0509C15.4821 14.0509 14.3045 13.7437 13.2345 13.2317H12.8095C9.55334 13.2317 6.91152 15.8735 6.91152 19.1298V20.6043C6.91152 21.961 8.01228 23.0618 9.36903 23.0618H24.1141C25.4708 23.0618 26.5716 21.961 26.5716 20.6043V19.1298C26.5716 15.8735 23.9298 13.2317 20.6736 13.2317ZM9.22055 12.5457C8.62665 11.9569 7.8126 11.5934 6.91152 11.5934H3.63484C1.82754 11.5934 0.358154 13.0628 0.358154 14.8701V16.5084C0.358154 17.4146 1.09029 18.1467 1.99649 18.1467H5.37045C5.693 15.72 7.15727 13.6771 9.22055 12.5457Z" fill="white"/>
</svg>
