<svg width="31" height="37" viewBox="0 0 31 37" fill="none" xmlns="http://www.w3.org/2000/svg">
<path fill-rule="evenodd" clip-rule="evenodd" d="M17.6423 0.675201H20.0305C21.9274 0.675201 22.4187 0.681842 22.4143 0.703975C22.4143 0.717255 22.4121 2.15373 22.4165 7.06077L22.556 7.13603C22.6334 7.17808 22.8039 7.27768 22.9389 7.35515C23.0717 7.43483 23.3373 7.60083 23.5254 7.72478C23.7136 7.84652 23.9836 8.03244 24.123 8.13204C24.2625 8.23386 24.517 8.42863 24.6875 8.56586C24.8579 8.70088 25.0925 8.89565 25.2076 8.99747C25.3227 9.09928 25.5374 9.29406 25.6813 9.42686C25.8273 9.56188 26.0996 9.83634 26.2877 10.0378C26.4759 10.2392 26.7547 10.5535 26.9075 10.735C27.0624 10.9187 27.3059 11.2263 27.4497 11.4211C27.5936 11.6159 27.8061 11.9147 27.919 12.0851C28.0319 12.2555 28.1979 12.5189 28.2886 12.6717C28.3794 12.8244 28.5276 13.0833 28.6184 13.2471C28.7069 13.4109 28.8508 13.6965 28.9393 13.8779C29.0257 14.0617 29.154 14.345 29.2249 14.5088C29.2935 14.6725 29.4041 14.947 29.4683 15.1174C29.5325 15.2879 29.6343 15.5822 29.6963 15.7704C29.7561 15.9585 29.8512 16.2772 29.9066 16.4787C29.9619 16.6801 30.0416 17.0032 30.0859 17.198C30.1279 17.3928 30.1943 17.727 30.2297 17.9395C30.2674 18.152 30.316 18.5061 30.3404 18.7252C30.3647 18.9443 30.3979 19.2874 30.4134 19.4888C30.4289 19.6903 30.44 20.1374 30.44 20.4849C30.44 20.8324 30.4289 21.2795 30.4134 21.4809C30.3979 21.6823 30.3647 22.0209 30.3404 22.2334C30.316 22.4459 30.2651 22.8 30.2297 23.0192C30.1921 23.2383 30.1235 23.5968 30.0726 23.816C30.0239 24.0351 29.9353 24.3892 29.8734 24.6017C29.8136 24.8142 29.7096 25.1528 29.641 25.3543C29.5724 25.5557 29.4661 25.8545 29.4019 26.0183C29.3377 26.1821 29.2337 26.4366 29.1695 26.5827C29.1053 26.7288 28.957 27.0431 28.8375 27.2799C28.718 27.5167 28.5454 27.8465 28.4502 28.0103C28.355 28.1741 28.2045 28.4286 28.1115 28.5747C28.0208 28.7208 27.8459 28.9842 27.722 29.1613C27.6002 29.3383 27.39 29.6216 27.2572 29.7921C27.1244 29.9625 26.9008 30.237 26.7592 30.4007C26.6175 30.5645 26.3187 30.8877 26.0929 31.1179C25.8672 31.3481 25.544 31.6602 25.3736 31.8129C25.2032 31.9656 24.9531 32.1803 24.8203 32.2887C24.6852 32.3972 24.4484 32.5831 24.289 32.7026C24.1297 32.82 23.8906 32.9904 23.7578 33.0811C23.6228 33.1741 23.4103 33.3135 23.282 33.3932C23.1536 33.4729 22.9145 33.6146 22.7508 33.7097C22.587 33.8049 22.2572 33.9798 22.0203 34.0971C21.7835 34.2166 21.4139 34.3892 21.2014 34.48C20.9889 34.5707 20.6702 34.6969 20.4931 34.7611C20.316 34.8253 20.0682 34.9116 19.9398 34.9536C19.8114 34.9935 19.5369 35.0776 19.3311 35.1351C19.123 35.1949 18.7755 35.2834 18.5564 35.3321C18.3373 35.3808 18.0075 35.4472 17.826 35.4782C17.6423 35.5092 17.3833 35.549 17.2505 35.5667C17.1155 35.5845 16.8433 35.6154 16.6419 35.6354C16.4404 35.6553 16.042 35.6774 15.7565 35.6863C15.471 35.6973 15.0062 35.6973 14.7273 35.6885C14.4462 35.6796 14.0832 35.6619 13.9194 35.6464C13.7556 35.6331 13.4369 35.5977 13.2111 35.5667C12.9854 35.538 12.691 35.4915 12.5582 35.4671C12.4232 35.4428 12.1709 35.3941 11.9938 35.3565C11.8167 35.3188 11.4891 35.237 11.2634 35.1772C11.0376 35.1174 10.6436 34.9979 10.3891 34.9116C10.1323 34.8253 9.745 34.6836 9.52588 34.5951C9.30675 34.5065 8.96368 34.3582 8.76226 34.2653C8.56085 34.1723 8.37935 34.0749 8.35722 34.0528C8.33509 34.0262 8.32623 33.993 8.33287 33.9709C8.34173 33.9488 8.5365 33.484 8.76669 32.9351C8.9991 32.3883 9.20051 31.9235 9.21822 31.9058C9.24478 31.8771 9.28683 31.8903 9.5635 32.0254C9.73836 32.1095 9.99954 32.229 10.1456 32.2932C10.2917 32.3574 10.5706 32.468 10.7654 32.5411C10.9601 32.6141 11.2545 32.7159 11.4183 32.7646C11.5821 32.8155 11.872 32.8952 12.0602 32.9439C12.2483 32.9926 12.587 33.0656 12.8127 33.1099C13.0385 33.152 13.386 33.2073 13.5874 33.2316C13.7888 33.2582 14.0921 33.2892 14.2625 33.3047C14.4329 33.318 14.8667 33.329 15.2253 33.329C15.5839 33.329 16.0177 33.318 16.1881 33.3047C16.3585 33.2892 16.6618 33.2582 16.8632 33.2316C17.0646 33.2073 17.4121 33.152 17.6379 33.1099C17.8636 33.0656 18.2023 32.9926 18.3904 32.9439C18.5786 32.8952 18.8685 32.8155 19.0323 32.7646C19.1961 32.7159 19.4905 32.6141 19.6852 32.5433C19.88 32.4702 20.1877 32.3441 20.3714 32.2644C20.5529 32.1847 20.8628 32.0364 21.0575 31.9368C21.2523 31.8372 21.5356 31.6845 21.6883 31.596C21.8411 31.5074 22.1199 31.3326 22.3081 31.2086C22.4962 31.0847 22.7795 30.8855 22.9389 30.7659C23.0983 30.6464 23.3351 30.4583 23.4701 30.3476C23.6029 30.2347 23.8375 30.0289 23.9902 29.8872C24.143 29.7478 24.351 29.5442 24.455 29.4357C24.5591 29.3273 24.7317 29.1391 24.8402 29.0174C24.9486 28.8957 25.1279 28.681 25.2408 28.5415C25.3537 28.4021 25.5418 28.152 25.6613 27.9882C25.7786 27.8244 25.9579 27.561 26.0575 27.4016C26.1571 27.2423 26.301 27.0099 26.374 26.8815C26.4493 26.7531 26.5887 26.4941 26.6839 26.306C26.7813 26.1179 26.9252 25.8146 27.0048 25.6309C27.0845 25.4494 27.2018 25.1595 27.266 24.9891C27.3302 24.8186 27.4276 24.5397 27.4807 24.3693C27.5338 24.1989 27.618 23.9111 27.6644 23.7274C27.7131 23.5459 27.7862 23.2206 27.8282 23.0081C27.8703 22.7956 27.9256 22.4725 27.9522 22.2887C27.9765 22.1073 28.0119 21.793 28.0296 21.5915C28.0473 21.3901 28.0673 21.0316 28.0739 20.7947C28.0828 20.5579 28.0783 20.1595 28.0651 19.9094C28.0518 19.6593 28.0274 19.3073 28.0075 19.1236C27.9898 18.9421 27.9433 18.6079 27.9079 18.3822C27.8703 18.1564 27.8017 17.8045 27.753 17.5964C27.7065 17.3883 27.6224 17.0652 27.567 16.8771C27.5139 16.6889 27.4121 16.3746 27.3435 16.1799C27.2749 15.9851 27.1421 15.6509 27.0513 15.4384C26.9606 15.2259 26.8034 14.8872 26.7016 14.6858C26.5998 14.4844 26.4338 14.1812 26.3342 14.0107C26.2346 13.8403 26.062 13.5614 25.9491 13.391C25.8362 13.2206 25.6414 12.9417 25.513 12.7713C25.3869 12.6008 25.1987 12.3618 25.0969 12.2401C24.9951 12.1183 24.8291 11.928 24.7295 11.8195C24.6299 11.7111 24.3997 11.4742 24.2182 11.2949C24.0389 11.1179 23.8021 10.8943 23.6914 10.7992C23.5808 10.704 23.3771 10.5358 23.2377 10.4229C23.0983 10.3122 22.8636 10.1351 22.7176 10.0289C22.5715 9.92487 22.4453 9.83855 22.4342 9.83855C22.4254 9.83855 22.4188 12.5853 22.4165 15.943C22.4165 19.2985 22.4099 22.063 22.401 22.0873C22.3878 22.125 22.3789 22.1227 22.3081 22.0652C22.266 22.0298 21.3253 21.2064 20.2164 20.2347C19.1098 19.2609 18.1801 18.4419 18.1027 18.36V13.6832C18.1027 11.1134 18.0983 9.01296 18.0938 9.0196C18.0872 9.02624 16.9075 11.7443 15.4732 15.0621C14.0367 18.3799 12.8659 21.1002 12.8703 21.1112C12.8747 21.1201 14.1031 21.1267 18.324 21.1267V20.4229C18.3218 19.8164 18.3262 19.7168 18.3572 19.6925C18.386 19.6703 18.5099 19.7766 19.1917 20.4118C19.6343 20.8213 20.6016 21.7199 21.3408 22.4083C22.0801 23.0966 22.6844 23.6721 22.6799 23.6876C22.6755 23.7031 21.7127 24.553 20.5374 25.5778C18.8419 27.0563 18.3948 27.437 18.3683 27.4193C18.3395 27.3994 18.3351 27.291 18.324 25.9961H10.7432L10.2297 27.1869C9.94642 27.8399 9.30897 29.3162 8.81096 30.4671C8.31295 31.6181 7.58254 33.3047 7.18856 34.2144C6.76802 35.1883 6.45815 35.8744 6.43823 35.8788C6.42052 35.8855 5.19432 35.9297 3.71578 35.9784C2.23725 36.0271 0.986701 36.067 0.938007 36.0692C0.889313 36.0692 0.831765 36.0692 0.809632 36.0692C0.783071 36.067 0.774218 36.0537 0.783071 36.0161C0.787498 35.9895 0.975634 35.5845 1.19918 35.1152C1.42273 34.646 1.91853 33.6101 2.29923 32.8133C2.67993 32.0165 3.31074 30.6951 3.69808 29.8806C4.08763 29.0661 4.66975 27.8487 4.98847 27.1803C5.3072 26.5096 6.04425 24.9669 6.62636 23.7496C7.20848 22.5322 8.10489 20.6553 8.6184 19.5774C9.1319 18.4995 9.97298 16.742 10.4843 15.6708C10.9956 14.5995 12.058 12.3729 12.8459 10.7239C13.6339 9.07494 14.2846 7.70707 14.2935 7.68494C14.3045 7.64731 14.2979 7.6451 14.2182 7.65617C14.1695 7.66281 14.019 7.6783 13.8862 7.69158C13.7512 7.70486 13.5033 7.73585 13.3329 7.7602C13.1624 7.78454 12.8725 7.83545 12.691 7.87086C12.5073 7.90849 12.1996 7.97711 12.0048 8.02801C11.8101 8.07671 11.4471 8.18516 11.197 8.26706C10.9469 8.34895 10.6038 8.4729 10.4334 8.54373C10.2629 8.61234 9.97298 8.7385 9.79148 8.82261C9.60777 8.90672 9.32003 9.0528 9.1496 9.14576C8.97918 9.23651 8.74013 9.37374 8.6184 9.44678C8.49666 9.51982 8.26647 9.66591 8.10932 9.76993C7.94996 9.87396 7.66665 10.0754 7.47851 10.217C7.29038 10.3587 7.01592 10.5778 6.86762 10.704C6.72154 10.8301 6.48914 11.0382 6.35191 11.1666C6.21689 11.2949 5.97563 11.5384 5.8207 11.7088C5.66355 11.8793 5.45771 12.1139 5.36032 12.229C5.26293 12.3441 5.08586 12.5676 4.96634 12.727C4.84682 12.8841 4.63655 13.1829 4.49932 13.391C4.3643 13.5968 4.17395 13.9023 4.08099 14.0661C3.98582 14.2299 3.82645 14.5287 3.72685 14.7301C3.62725 14.9315 3.49223 15.2148 3.42805 15.3609C3.36386 15.507 3.26426 15.7505 3.20671 15.9032C3.14695 16.0559 3.05399 16.3193 2.99865 16.4897C2.94332 16.6602 2.86142 16.928 2.81937 17.0873C2.77732 17.2445 2.70649 17.5344 2.66443 17.7292C2.62238 17.924 2.56926 18.2029 2.54491 18.349C2.52057 18.495 2.48515 18.7341 2.46744 18.8802C2.44974 19.0262 2.42096 19.2808 2.40768 19.4446C2.39219 19.6084 2.37891 20.0665 2.37891 20.4627C2.37891 20.8744 2.38998 21.3193 2.40547 21.503C2.42096 21.6801 2.45859 22.0077 2.48958 22.2334C2.52057 22.4592 2.57369 22.7912 2.61131 22.9749C2.64673 23.1564 2.71534 23.4618 2.76404 23.65C2.81052 23.8381 2.89463 24.1369 2.94996 24.314C3.00308 24.491 3.09383 24.7589 3.15138 24.9116C3.20892 25.0643 3.31516 25.3321 3.39042 25.5092C3.46567 25.6863 3.6184 26.0138 3.93269 26.6491L3.89507 26.7398C3.87515 26.7885 3.62946 27.3596 3.35058 28.0059C3.06727 28.661 2.82601 29.1878 2.8083 29.1945C2.7906 29.2011 2.76182 29.1922 2.74412 29.179C2.72641 29.1635 2.63566 29.0351 2.5427 28.8957C2.44974 28.7562 2.28152 28.4906 2.17307 28.3091C2.0624 28.1254 1.89418 27.8266 1.79458 27.6451C1.69719 27.4614 1.53783 27.1427 1.44044 26.9368C1.34527 26.731 1.20582 26.41 1.13057 26.2285C1.05753 26.0448 0.942434 25.7394 0.873819 25.5468C0.805205 25.3565 0.70339 25.0466 0.648056 24.8607C0.592722 24.677 0.504187 24.3494 0.451066 24.1369C0.397945 23.9244 0.324904 23.5946 0.287277 23.4065C0.249649 23.2184 0.196529 22.8886 0.165541 22.6761C0.134554 22.4636 0.0947136 22.1338 0.0770066 21.9457C0.0592997 21.7575 0.0327393 21.4078 0.0172457 21.171C0.00175211 20.9076 -0.004888 20.5335 0.00396548 20.2082C0.012819 19.916 0.0327393 19.4977 0.0526596 19.2786C0.0703665 19.0594 0.10578 18.7164 0.132341 18.515C0.156688 18.3135 0.212022 17.9616 0.254076 17.7292C0.29613 17.4968 0.380238 17.1095 0.439999 16.866C0.49976 16.6225 0.594935 16.2728 0.650269 16.0913C0.705603 15.9076 0.800778 15.6154 0.862753 15.4384C0.924727 15.2613 1.0199 15.0023 1.07524 14.8629C1.13057 14.7235 1.23239 14.4778 1.30321 14.3206C1.37404 14.1613 1.51348 13.8691 1.61308 13.6677C1.71269 13.4663 1.86541 13.1785 1.95173 13.0258C2.03805 12.8731 2.17307 12.6451 2.25053 12.5167C2.33022 12.3883 2.48515 12.1493 2.59582 11.9855C2.70649 11.8217 2.90569 11.5428 3.03849 11.3658C3.16908 11.1887 3.39485 10.9054 3.53872 10.735C3.68037 10.5645 3.92827 10.2856 4.08542 10.1152C4.24478 9.94479 4.48161 9.70132 4.61441 9.57294C4.74721 9.44457 4.96412 9.24094 5.09914 9.12142C5.23194 8.99968 5.45107 8.81155 5.58608 8.70309C5.71888 8.59242 5.94465 8.41757 6.08409 8.31132C6.22353 8.20508 6.467 8.03023 6.62636 7.92177C6.78351 7.8111 7.04248 7.64067 7.20184 7.54328C7.35899 7.4459 7.59361 7.30645 7.72198 7.23341C7.85036 7.16037 8.05841 7.04528 8.18679 6.97666C8.31516 6.91026 8.57856 6.77967 8.77333 6.68893C8.96811 6.59818 9.30675 6.45209 9.52588 6.36356C9.745 6.27502 10.0991 6.14444 10.3116 6.07139C10.5241 6.00057 10.834 5.90318 10.9978 5.85448C11.1616 5.808 11.4161 5.73939 11.5622 5.70176C11.7083 5.66635 11.996 5.59995 12.2041 5.55789C12.4099 5.51584 12.7485 5.45608 12.9566 5.42509C13.1624 5.3941 13.4812 5.35426 13.6649 5.33656C13.8464 5.31664 14.1717 5.29229 14.3842 5.27901C14.5967 5.26794 14.9265 5.25687 15.4577 5.25687L15.8871 4.35382C16.1239 3.85803 16.6153 2.82881 16.9805 2.06298L17.6423 0.675201ZM22.3966 25.2857C22.4077 25.3056 22.4143 26.2352 22.4165 27.3529C22.4165 29.1723 22.4143 29.387 22.3833 29.4158C22.3523 29.4468 22.0845 29.449 20.2585 29.449C18.4303 29.449 18.1647 29.4468 18.1337 29.4158C18.1093 29.3914 18.1005 29.3206 18.1005 29.0838C18.1005 28.7894 18.1027 28.785 18.1624 28.7208C18.1956 28.6854 19.143 27.8996 20.2696 26.9744C21.3962 26.0493 22.3302 25.2834 22.3479 25.2702C22.3723 25.2524 22.3855 25.2569 22.3966 25.2857Z" fill="white"/>
</svg>
