<svg width="86" height="15" viewBox="0 0 86 15" fill="none" xmlns="http://www.w3.org/2000/svg">
<path d="M0.850349 9.82391C0.997182 9.6606 1.33979 9.4238 1.60899 9.29315C2.00054 9.11351 2.21264 9.06451 2.66945 9.06451C3.10995 9.06451 3.33836 9.11351 3.67281 9.26865C3.90122 9.38297 4.24383 9.61977 4.42329 9.79941C4.60275 9.97905 4.83932 10.322 4.95352 10.5506C5.11667 10.9099 5.15746 11.1059 5.15746 11.6775C5.15746 12.1347 5.10851 12.5104 5.01878 12.7798C4.92089 13.0493 4.73327 13.3269 4.46408 13.5882C4.24383 13.8087 3.90938 14.0618 3.72991 14.1598C3.46888 14.2986 3.25678 14.3313 2.66945 14.3313C2.02502 14.3313 1.88634 14.3068 1.52741 14.1108C1.30716 13.9801 0.989025 13.727 0.825877 13.5392C0.662729 13.3432 0.466951 13.0574 0.37722 12.9023C0.254859 12.6737 0.222229 12.445 0.222229 11.7183C0.222229 10.9426 0.246701 10.7711 0.409849 10.469C0.507738 10.2812 0.711673 9.99538 0.850349 9.82391Z" fill="white"/>
<path fill-rule="evenodd" clip-rule="evenodd" d="M12.0505 0.0417531L12.5726 0.286718C12.907 0.441862 13.2333 0.686827 13.4862 0.964454C13.7064 1.19309 13.9675 1.56054 14.0654 1.77284C14.2122 2.09946 14.2448 2.31176 14.2448 3.02216C14.2448 3.74072 14.2122 3.93669 14.0654 4.24698C13.9675 4.45112 13.7635 4.74508 13.6249 4.90839C13.478 5.06353 13.2251 5.29217 13.0702 5.40648C12.9152 5.5208 12.4502 5.7821 12.0505 5.98623C11.6508 6.19037 11.145 6.43534 10.9248 6.52516C10.7127 6.62314 10.3701 6.77012 10.158 6.86811C9.93771 6.95793 9.69299 7.06408 9.60326 7.10491C9.51353 7.13757 9.30959 7.22739 9.1546 7.29271C8.99961 7.35804 8.35518 7.61117 7.72706 7.8643C7.09894 8.10926 6.43819 8.36239 6.25872 8.41955C6.04663 8.49304 5.54087 8.53387 4.83118 8.53387C3.90123 8.53387 3.6402 8.50121 3.15891 8.34606C2.84893 8.23991 2.35133 8.00311 2.06582 7.8153C1.78031 7.6275 1.41323 7.32537 1.25008 7.13757C1.08693 6.95793 0.83405 6.56598 0.679059 6.28019C0.524068 5.9944 0.352763 5.55346 0.295661 5.3085C0.238559 5.06353 0.189615 4.63076 0.181458 4.34497C0.181458 4.06734 0.222245 3.64274 0.271189 3.4141C0.320133 3.1773 0.483281 2.71187 0.638272 2.39342C0.825892 1.98514 1.07061 1.64219 1.42954 1.28291C1.75584 0.956288 2.13923 0.670496 2.50632 0.490855C2.8163 0.335711 3.26496 0.164236 3.48521 0.107077C3.77887 0.0417531 5.02696 0.0172566 12.0505 0.0417531V0.0417531ZM44.052 0.000925646C44.4762 -0.00723985 44.6475 0.0335876 45.0472 0.327545L45.0635 2.64655C45.0798 3.92036 45.1124 4.99821 45.1451 5.03904C45.1777 5.0717 45.3979 4.91655 45.6345 4.68792C45.8711 4.45929 46.23 4.18166 46.4339 4.05918C46.6379 3.94486 47.0131 3.78972 47.266 3.71623C47.5433 3.64274 48.0736 3.59374 48.5304 3.59374C49.0933 3.59374 49.493 3.64274 49.86 3.75705C50.1537 3.84687 50.4882 3.98569 50.6024 4.05918C50.7166 4.14083 50.9205 4.29598 51.051 4.41029C51.1897 4.52461 51.4263 4.80224 51.5894 5.0227C51.7526 5.25134 51.9728 5.66778 52.0789 5.96174C52.2665 6.48433 52.2665 6.55782 52.291 10.0445C52.3073 11.996 52.291 13.6781 52.2665 13.7843C52.242 13.8904 52.1115 14.0129 51.9402 14.0864C51.7852 14.1517 51.5078 14.2089 51.3284 14.2089C51.1489 14.2089 50.8716 14.1517 50.7166 14.0864C50.5616 14.0211 50.4066 13.9149 50.3658 13.8659C50.3332 13.8088 50.2924 12.29 50.2679 10.4936C50.2271 7.37437 50.2108 7.21106 50.0477 6.77829C49.9335 6.50066 49.7295 6.19854 49.5174 6.00256C49.3217 5.82292 49.0933 5.63512 49.0035 5.58612C48.9138 5.53713 48.6201 5.44731 48.3509 5.39015C47.9757 5.31666 47.7473 5.31666 47.372 5.39015C47.1028 5.43914 46.6868 5.58612 46.4503 5.71677C46.2218 5.85559 45.9119 6.11688 45.7732 6.31285C45.6345 6.50066 45.4714 6.78645 45.3979 6.9416C45.3327 7.09674 45.2266 7.49685 45.1614 7.82347C45.0798 8.25624 45.0472 9.09729 45.0553 13.7598L44.8351 13.9639C44.6801 14.1109 44.5169 14.1762 44.207 14.2007C43.9378 14.2171 43.6686 14.1762 43.4728 14.0946C43.2362 13.9884 43.1547 13.8986 43.0894 13.6536C43.0241 13.4495 43.0078 11.2203 43.0486 0.392869L43.277 0.196898C43.4728 0.0335876 43.5952 0.000925646 44.052 0.000925646V0.000925646ZM24.3274 3.60191C24.931 3.60191 25.4368 3.64274 25.7549 3.72439C26.0241 3.79788 26.4728 3.96119 26.7583 4.09184C27.0356 4.22249 27.4761 4.52461 27.7372 4.76141C27.99 5.00637 28.3571 5.43914 28.5448 5.72494C28.7242 6.01073 28.9445 6.43534 29.0342 6.66397C29.1729 7.06408 29.1729 7.08857 29.0424 7.30088C28.9037 7.49685 28.8547 7.51318 28.2429 7.51318C27.8514 7.51318 27.5006 7.46419 27.3701 7.39886C27.2396 7.34171 27.0438 7.10491 26.9214 6.8926C26.7991 6.67213 26.5462 6.33735 26.3504 6.14138C26.1546 5.94541 25.8528 5.72494 25.6733 5.64328C25.4939 5.55346 25.1105 5.44731 24.8168 5.39015C24.3926 5.3085 24.1887 5.3085 23.7971 5.39015C23.5279 5.44731 23.1445 5.56979 22.9488 5.66778C22.7448 5.7576 22.4349 5.9944 22.2554 6.17404C22.0678 6.36185 21.8149 6.72929 21.6844 6.99059C21.5457 7.27638 21.3989 7.77448 21.3254 8.20725C21.2194 8.86865 21.2194 9.01563 21.3418 9.73419C21.4152 10.1751 21.562 10.7059 21.6681 10.9182C21.7741 11.1387 21.9617 11.4326 22.0922 11.5878C22.2228 11.7429 22.4838 11.9715 22.6796 12.094C22.8672 12.2247 23.2343 12.388 23.4953 12.4533C23.7482 12.5186 24.1479 12.5758 24.3682 12.5758C24.5966 12.5758 24.98 12.5186 25.2247 12.4451C25.4694 12.3716 25.7875 12.2328 25.9181 12.143C26.0486 12.0532 26.2199 11.9144 26.2933 11.8491C26.3667 11.7756 26.5951 11.4489 26.7991 11.1223C27.0193 10.7875 27.2722 10.5018 27.3864 10.4528C27.5006 10.4038 27.8432 10.3711 28.1614 10.3711C28.4795 10.3711 28.8058 10.4038 28.8955 10.4528C29.0179 10.5181 29.0587 10.6161 29.0587 10.8774C29.0587 11.0897 28.9771 11.4081 28.8466 11.6776C28.7324 11.9225 28.4795 12.3227 28.2919 12.5676C28.1124 12.8126 27.7372 13.1719 27.468 13.376C27.1988 13.572 26.848 13.7924 26.693 13.8578C26.538 13.9231 26.2607 14.0292 26.0812 14.0864C25.9018 14.1436 25.5184 14.2415 25.2247 14.2987C24.9065 14.3559 24.4171 14.3804 24.0011 14.3477C23.6177 14.3232 23.0874 14.2415 22.8183 14.1681C22.5491 14.0946 22.0922 13.9231 21.7986 13.7761C21.4451 13.6019 21.0644 13.3107 20.6565 12.9024C20.1997 12.4533 19.9632 12.1267 19.7429 11.6776C19.5798 11.3428 19.384 10.8284 19.3106 10.5344C19.2127 10.1751 19.1637 9.67704 19.1637 8.98297C19.1637 8.28074 19.2045 7.79897 19.3024 7.43153C19.384 7.13757 19.5798 6.62314 19.7429 6.28836C19.955 5.83925 20.1997 5.51263 20.6484 5.05537C20.991 4.72058 21.4315 4.35313 21.6354 4.23882C21.8394 4.1245 22.1901 3.96936 22.4104 3.89587C22.6388 3.82238 22.9488 3.72439 23.1038 3.68356C23.2588 3.64274 23.8135 3.60191 24.3274 3.60191V3.60191ZM35.8701 3.60191C36.3677 3.60191 36.9713 3.6509 37.2161 3.70806C37.4608 3.77338 37.7381 3.84687 37.8279 3.87954C37.9176 3.92036 38.1379 4.01018 38.3173 4.09184C38.4968 4.16533 38.872 4.40213 39.1575 4.60626C39.4349 4.8104 39.8346 5.21051 40.0385 5.48814C40.2425 5.77393 40.4872 6.14954 40.5769 6.32918C40.6748 6.50882 40.8135 6.85994 40.8869 7.10491C40.9685 7.34987 41.0827 7.8643 41.1398 8.24808C41.2214 8.80333 41.2214 9.08096 41.1479 9.63621C41.0908 10.02 40.9929 10.4936 40.9358 10.6977C40.8787 10.9019 40.7074 11.3183 40.5524 11.6204C40.3975 11.9307 40.0956 12.388 39.8672 12.6329C39.647 12.8861 39.2391 13.2454 38.9699 13.4332C38.7007 13.621 38.301 13.8496 38.0726 13.9476C37.8523 14.0374 37.3955 14.1762 37.0774 14.2415C36.7511 14.315 36.229 14.3722 35.9109 14.3722C35.5927 14.3722 35.1441 14.3314 34.9157 14.2824C34.6791 14.2334 34.3283 14.1436 34.1407 14.0782C33.945 14.0129 33.635 13.8823 33.4473 13.7924C33.2516 13.6945 32.9416 13.5067 32.754 13.3842C32.5582 13.2535 32.3624 13.0657 32.3135 12.9596C32.2645 12.8616 32.2482 12.6819 32.2727 12.5513C32.3053 12.4043 32.4685 12.2328 32.754 12.0287C33.0476 11.8246 33.2679 11.7347 33.4637 11.7347C33.6594 11.7347 33.8797 11.8246 34.157 12.0205C34.3855 12.1757 34.7281 12.3553 34.932 12.4206C35.1441 12.486 35.6091 12.535 36.0332 12.5268C36.6369 12.5268 36.8408 12.4941 37.1753 12.3227C37.3955 12.2165 37.7463 11.9797 37.9502 11.7919C38.1542 11.6041 38.4152 11.2775 38.5376 11.057C38.6599 10.8365 38.8149 10.4364 38.8802 10.167C38.9536 9.8975 39.0107 9.34225 39.0107 8.94214C39.0107 8.5257 38.9618 8.01128 38.8883 7.75815C38.8149 7.51318 38.6762 7.14573 38.5784 6.94976C38.4805 6.74562 38.2439 6.42717 38.0563 6.2312C37.8605 6.03523 37.5342 5.79026 37.3221 5.68411C37.1019 5.57796 36.694 5.44731 36.4003 5.39015C35.9843 5.31666 35.7641 5.31666 35.3807 5.39015C35.1115 5.44731 34.7281 5.56979 34.5241 5.66778C34.3283 5.7576 33.9857 6.01073 33.7736 6.22303C33.5534 6.4435 33.276 6.84361 33.1455 7.12124C33.0069 7.43153 32.8682 7.89696 32.8192 8.2889C32.7621 8.71351 32.754 9.11362 32.8029 9.43207C32.8437 9.70153 32.909 10.069 32.9334 10.2486C32.9661 10.4283 32.9742 10.6732 32.9416 10.7957C32.909 10.959 32.7295 11.1387 32.3624 11.3918C32.0687 11.5959 31.7425 11.7592 31.6282 11.7592C31.4977 11.7592 31.3591 11.6694 31.2204 11.4898C31.1143 11.351 30.943 10.9345 30.8533 10.5752C30.7554 10.216 30.6657 9.62804 30.633 9.26876C30.6086 8.83599 30.633 8.39505 30.7146 7.96228C30.788 7.603 30.9267 7.08857 31.0246 6.81911C31.1225 6.54965 31.3346 6.12505 31.4896 5.88008C31.6446 5.63512 31.9627 5.25134 32.1911 5.03087C32.4195 4.8104 32.754 4.53278 32.9334 4.41029C33.1129 4.29598 33.3902 4.14083 33.5452 4.06734C33.7002 3.99385 33.9613 3.89587 34.1163 3.84687C34.2712 3.79788 34.5323 3.72439 34.6873 3.68356C34.8423 3.64274 35.3807 3.61007 35.8701 3.60191V3.60191ZM59.3634 3.60191C59.9181 3.60191 60.4647 3.64274 60.791 3.72439C61.0846 3.78972 61.5414 3.95302 61.8106 4.09184C62.0798 4.22249 62.4714 4.46745 62.6753 4.63076C62.8793 4.80224 63.1811 5.10436 63.3442 5.3085C63.5074 5.51263 63.7521 5.89641 63.8826 6.16587C64.0213 6.43534 64.1926 6.8926 64.266 7.18656C64.3476 7.48052 64.4129 8.02761 64.4129 8.40322C64.421 9.04013 64.4047 9.09729 64.2171 9.24427C64.0213 9.39124 63.8337 9.39941 60.2607 9.39941C58.0093 9.39124 56.4757 9.42391 56.4268 9.4729C56.3724 9.52189 56.3751 9.70425 56.4349 10.02C56.4839 10.2813 56.6144 10.6977 56.7204 10.9427C56.8346 11.1877 57.0712 11.5388 57.2507 11.7266C57.422 11.9062 57.7319 12.1512 57.9359 12.2737C58.1398 12.388 58.5558 12.535 58.874 12.5921C59.3226 12.6656 59.5674 12.6738 60.0405 12.5921C60.3586 12.535 60.7747 12.4206 60.9541 12.3308C61.1336 12.241 61.4272 12.0287 61.6149 11.8572C61.7943 11.6939 62.0554 11.3918 62.1777 11.1877C62.3082 10.9835 62.504 10.7712 62.6182 10.7141C62.7324 10.6651 63.0832 10.6161 63.4013 10.6161C63.8663 10.6161 64.005 10.6487 64.1355 10.7794C64.2252 10.8692 64.2987 11.0162 64.2987 11.106C64.2987 11.1958 64.1844 11.4979 64.0376 11.7756C63.8745 12.1022 63.5563 12.5105 63.1648 12.9024C62.7487 13.3107 62.3653 13.6046 62.0146 13.7761C61.7209 13.9231 61.2641 14.0946 60.9949 14.1681C60.7257 14.2415 60.1955 14.3232 59.8121 14.3477C59.4205 14.3722 58.874 14.3559 58.5477 14.2987C58.2295 14.2415 57.8135 14.1436 57.6096 14.0782C57.4056 14.0047 57.0222 13.8333 56.7531 13.6945C56.4839 13.5475 56.0189 13.1964 55.7252 12.9024C55.3418 12.5186 55.0971 12.1838 54.8524 11.6776C54.6566 11.2938 54.4527 10.763 54.3874 10.4936C54.3221 10.2241 54.2487 9.7097 54.2161 9.35042C54.1835 8.98297 54.1998 8.44405 54.2569 8.1011C54.3058 7.78264 54.4037 7.3417 54.469 7.12124C54.5424 6.90893 54.7137 6.50066 54.8605 6.2067C55.0318 5.86375 55.3337 5.46364 55.7334 5.05537C56.182 4.5981 56.5083 4.35313 56.957 4.13267C57.2914 3.96936 57.7727 3.78155 58.0175 3.72439C58.2622 3.65907 58.874 3.61007 59.3634 3.60191V3.60191ZM58.099 5.53713C57.8951 5.62695 57.5606 5.86375 57.3485 6.07605C57.112 6.29652 56.8591 6.66397 56.7123 6.98242C56.5817 7.27638 56.4675 7.603 56.4675 7.71732C56.4675 7.8643 56.5246 7.93779 56.6552 7.96228C56.7531 7.98678 58.0501 7.99494 59.5266 7.98678L62.2185 7.96228C62.2022 7.38253 62.1125 7.05591 61.9901 6.81911C61.8759 6.59048 61.6393 6.26386 61.4599 6.08422C61.2804 5.90458 60.9786 5.67594 60.7828 5.57796C60.587 5.47997 60.2199 5.35749 59.9752 5.3085C59.7305 5.26767 59.4368 5.22684 59.3226 5.23501C59.2084 5.24317 58.9719 5.27584 58.7924 5.3085C58.6129 5.34116 58.303 5.44731 58.099 5.53713V5.53713ZM73.6633 3.60191C74.3894 3.59374 74.422 3.60191 74.577 3.81421C74.7075 3.99385 74.7483 4.16533 74.7401 4.58993C74.7401 5.06353 74.7157 5.17785 74.5362 5.34932C74.3649 5.52897 74.267 5.55346 73.7857 5.55346C73.4839 5.55346 73.0271 5.58612 72.7824 5.63512C72.5376 5.68411 72.1379 5.80659 71.9014 5.92091C71.6077 6.05972 71.3711 6.26386 71.1182 6.58231C70.898 6.86811 70.6941 7.25188 70.588 7.58667C70.4983 7.88063 70.3922 8.2889 70.3596 8.49304C70.327 8.69718 70.2209 8.95031 70.123 9.06462C69.9599 9.24427 69.8783 9.26876 69.3318 9.26876C68.7852 9.26876 68.6955 9.24427 68.2876 8.86049L68.2958 7.44786C68.2958 6.53332 68.2631 5.97807 68.1979 5.85558C68.1489 5.7576 68.0511 5.63512 67.9776 5.57796C67.8961 5.51263 67.5453 5.47997 67.0477 5.47181C66.6154 5.47181 66.1749 5.43098 66.0688 5.39015C65.9709 5.34116 65.8404 5.21868 65.7833 5.10436C65.7344 4.99004 65.6854 4.74508 65.6854 4.54911C65.6773 4.29598 65.7344 4.149 66.0933 3.75705H67.9695C69.8212 3.75705 69.8457 3.75705 69.9925 3.93669C70.0822 4.05101 70.1557 4.34497 70.1965 4.69608C70.2291 5.00637 70.2943 5.30033 70.3433 5.34932C70.4085 5.40648 70.4657 5.38199 70.5309 5.27583C70.5799 5.18601 70.7838 4.93288 70.9877 4.71242C71.1917 4.49195 71.4935 4.22249 71.6566 4.11633C71.8279 4.01018 72.1787 3.84687 72.4316 3.76522C72.7579 3.65907 73.1413 3.60191 73.6552 3.60191H73.6633ZM80.7032 3.60191C81.4047 3.59374 81.7881 3.63457 82.2286 3.75705C82.5549 3.84687 82.9954 4.01018 83.2075 4.11633C83.4278 4.22249 83.7949 4.45929 84.0233 4.64709C84.2598 4.82673 84.6187 5.21051 84.8145 5.48814C85.0103 5.77393 85.255 6.2067 85.3529 6.45167C85.4508 6.69663 85.5813 7.10491 85.6384 7.34987C85.6955 7.59484 85.7689 8.01944 85.8016 8.2889C85.8342 8.58286 85.8179 8.86865 85.7689 8.9993C85.72 9.12995 85.6058 9.2606 85.5161 9.30959C85.4182 9.35858 83.9662 9.39124 81.6576 9.39124C79.6346 9.38308 77.9052 9.41574 77.8236 9.4484C77.7013 9.50556 77.6768 9.57089 77.7257 9.84035C77.7502 10.02 77.8318 10.3466 77.9052 10.5752C77.9786 10.7957 78.1336 11.1305 78.2641 11.3101C78.3865 11.4898 78.6067 11.7511 78.7617 11.8981C78.9086 12.045 79.2349 12.2492 79.4796 12.3635C79.7325 12.486 80.1566 12.5921 80.4585 12.6248C80.7521 12.6493 81.1926 12.6411 81.4374 12.5921C81.6821 12.5513 82.0492 12.4288 82.2531 12.339C82.457 12.241 82.7344 12.0614 82.8731 11.9389C83.0036 11.8164 83.2728 11.5061 83.4604 11.2448C83.648 10.9917 83.8764 10.7386 83.9661 10.6977C84.0559 10.6487 84.374 10.6161 84.6758 10.6161C85.0348 10.6161 85.2958 10.6569 85.41 10.7386C85.5405 10.8202 85.5976 10.9427 85.5976 11.1223C85.5976 11.2775 85.4671 11.6204 85.2958 11.9225C85.1245 12.2165 84.7656 12.6738 84.4882 12.9432C84.219 13.2127 83.7704 13.5475 83.5093 13.6945C83.2483 13.8333 82.8649 14.0047 82.661 14.0782C82.457 14.1436 82.0573 14.2415 81.7637 14.2987C81.4374 14.3559 80.9479 14.3804 80.4993 14.3477C80.0914 14.3232 79.5448 14.2415 79.2756 14.1681C79.0064 14.0946 78.5496 13.9231 78.256 13.7761C77.8889 13.5965 77.53 13.327 77.0731 12.8616C76.6245 12.4206 76.3308 12.0369 76.1514 11.6776C76.0127 11.3836 75.8169 10.8529 75.7272 10.4936C75.6211 10.0608 75.564 9.56272 75.564 9.0238C75.564 8.57469 75.613 7.97045 75.6782 7.67649C75.7353 7.38253 75.8577 6.95793 75.9474 6.73746C76.029 6.50882 76.2003 6.15771 76.3227 5.93724C76.445 5.72494 76.7387 5.35749 76.9671 5.12069C77.2037 4.88389 77.5789 4.56544 77.8073 4.41029C78.0276 4.26331 78.3457 4.08367 78.5007 4.01835C78.6557 3.94486 79.0064 3.83054 79.2756 3.74889C79.6101 3.6509 80.0588 3.60191 80.7032 3.60191V3.60191ZM79.7488 5.41465C79.5775 5.45548 79.2512 5.62695 79.0146 5.79026C78.7699 5.95357 78.4599 6.28019 78.2968 6.53332C78.1336 6.77829 77.9378 7.17839 77.8644 7.41519C77.7421 7.79897 77.7421 7.85613 77.8481 7.92146C77.9134 7.97045 79.1288 8.00311 80.6216 8.00311C82.0818 8.00311 83.3543 7.98678 83.4522 7.96228C83.6154 7.92962 83.6317 7.88879 83.5909 7.61117C83.5583 7.44786 83.4522 7.12124 83.3462 6.90077C83.2401 6.67213 83.0199 6.32918 82.8486 6.13321C82.661 5.92091 82.3428 5.69228 82.0492 5.55346C81.7147 5.39015 81.3803 5.3085 80.9887 5.284C80.6787 5.2595 80.3361 5.2595 80.2382 5.29217C80.1403 5.31666 79.9201 5.37382 79.7488 5.41465V5.41465ZM69.4868 10.0037C69.8865 10.0282 70.0088 10.069 70.1557 10.2405C70.327 10.4283 70.3433 10.5426 70.3433 11.2448C70.3433 11.8082 70.3759 12.094 70.4575 12.2083C70.5635 12.3553 70.6941 12.3798 71.7627 12.4125C72.7579 12.4451 72.97 12.4778 73.0923 12.6003C73.1821 12.6901 73.2473 12.9106 73.2718 13.1719C73.2881 13.4087 73.2636 13.6781 73.2065 13.7761C73.1576 13.8823 72.9863 14.0211 72.8313 14.0864C72.5947 14.1844 72.0074 14.2089 69.3807 14.2089C67.4637 14.2089 66.1178 14.1762 65.9546 14.1272C65.8159 14.0864 65.6528 13.9721 65.612 13.8823C65.5712 13.7924 65.5304 13.523 65.5304 13.2862C65.5223 12.9841 65.5712 12.8044 65.6854 12.6574C65.8322 12.4615 65.8893 12.4533 66.909 12.4125C67.7819 12.3798 67.994 12.3472 68.1163 12.2247C68.2387 12.1104 68.2713 11.9144 68.2876 11.204C68.3039 10.5099 68.3366 10.3058 68.4508 10.1915C68.5242 10.118 68.6792 10.0445 68.7934 10.02C68.9076 9.99549 69.2176 9.98733 69.4868 10.0037Z" fill="white"/>
<path d="M8.95066 8.28883C9.61956 8.00304 10.2477 7.75807 10.3374 7.73358C10.4271 7.70908 10.8513 7.69275 11.2837 7.70092C11.9934 7.71725 12.1076 7.74174 12.6704 8.0112C13.1028 8.23167 13.3801 8.43581 13.6575 8.7461C13.8614 8.99106 14.1143 9.37484 14.2122 9.59531C14.3182 9.82394 14.4406 10.2077 14.4977 10.4527C14.5711 10.7711 14.5711 11.0569 14.514 11.4325C14.4732 11.7265 14.3427 12.1838 14.2203 12.4532C14.0817 12.7554 13.8206 13.1146 13.5514 13.3841C13.2986 13.6454 12.8907 13.9312 12.0505 14.3313H10.0519C8.10229 14.3313 8.04518 14.3231 7.64547 14.1353C7.42522 14.0292 7.04182 13.7515 6.80526 13.5229C6.48712 13.2208 6.31581 12.9677 6.16898 12.5757C5.98952 12.1184 5.96505 11.947 5.98952 11.3509C6.01399 10.861 6.07109 10.5507 6.20161 10.2894C6.29134 10.0852 6.52791 9.74229 6.72368 9.52182C6.91946 9.30135 7.22129 9.04822 7.40075 8.9584C7.58021 8.86858 8.27359 8.56646 8.95066 8.28883Z" fill="white"/>
</svg>
