<svg width="31" height="31" viewBox="0 0 31 31" fill="none" xmlns="http://www.w3.org/2000/svg">
<path fill-rule="evenodd" clip-rule="evenodd" d="M18.3628 0.283255C18.3628 0.355334 18.457 0.953223 18.5723 1.61204C18.6874 2.27073 18.8434 3.30563 18.9187 3.91169C18.9942 4.51774 19.1932 5.947 19.3612 7.08781C19.6688 9.17719 19.907 11.2055 19.8528 11.2723C19.8368 11.2921 19.4884 11.1548 19.0787 10.9672C18.338 10.6278 18.3278 10.6271 17.2161 10.8106L16.0983 10.9952L16.0058 10.433C15.955 10.1238 15.9393 8.51539 15.971 6.85887L16.0285 3.84687L16.4426 3.06904C16.6703 2.64124 16.8758 2.26205 16.8992 2.2264C16.9519 2.14576 11.2095 2.22756 11.1191 2.30872C11.0831 2.341 11.2276 2.49617 11.4401 2.65342C11.8042 2.92294 11.8344 3.02898 11.9633 4.49506C12.1521 6.64342 12.2798 11.982 12.1467 12.1596C11.9926 12.3652 9.71546 13.6793 9.15457 13.8862C8.89801 13.9809 8.64684 14.0208 8.59653 13.975C8.54621 13.9289 8.4767 11.7189 8.44216 9.06362L8.37919 4.23578L8.75146 3.87254C8.95614 3.6729 9.12358 3.45303 9.12358 3.38419C9.12358 3.26168 3.32151 3.34543 2.87732 3.47429C2.73617 3.51539 2.81122 3.61106 3.11839 3.7814C3.97209 4.25497 3.96229 4.20065 4.16 9.58153C4.26007 12.3078 4.30513 14.5722 4.25993 14.6134C4.14906 14.7145 2.37954 13.8885 1.6097 13.3762C1.26856 13.1493 1.04469 12.9154 1.11221 12.8566C1.17958 12.7977 1.58469 12.5746 2.01239 12.3608C3.40211 11.6661 3.12095 11.5507 1.03389 11.959C-0.112627 12.1832 -0.186824 12.2864 0.238463 13.0648C0.825791 14.14 1.40317 14.633 2.86225 15.3056C3.9647 15.8137 4.22766 15.9926 4.32887 16.3029C4.53171 16.925 4.32745 21.4907 4.07699 21.9323C3.85412 22.3254 3.03012 22.9684 2.74939 22.9684C2.65899 22.9684 2.58508 23.076 2.58508 23.2075C2.58508 23.4294 2.80085 23.4529 5.60558 23.5361C7.26693 23.5854 8.8801 23.6789 9.19068 23.7437C10.095 23.9326 10.0675 23.815 9.05251 23.1501C8.80675 22.9891 8.75558 22.758 8.67442 21.4429C8.62268 20.6064 8.57478 18.9449 8.56781 17.7505C8.55559 15.6837 8.56838 15.5791 8.83077 15.5791C9.24 15.5791 11.0981 14.9431 11.6981 14.5976L12.2204 14.2968L12.3218 16.6557C12.381 18.0377 12.3606 19.8333 12.2724 20.9915C12.0773 23.5531 11.911 23.9192 10.5771 24.7228C10.5558 24.7357 10.575 24.8334 10.6199 24.9401C10.6867 25.099 11.2179 25.1497 13.5726 25.2219C15.1518 25.2703 16.6838 25.3437 16.9769 25.3849C17.6154 25.4747 17.7234 25.1907 17.156 24.9137C16.9613 24.8186 16.6575 24.4734 16.4808 24.1463C16.1641 23.5601 16.159 23.472 16.1185 17.8292L16.0774 12.1067L16.7479 11.8983C17.6512 11.6176 18.3227 11.625 18.4169 11.9168C18.5729 12.3997 19.1851 16.1159 19.4261 18.0422L19.5153 18.7552L18.9902 18.2656C18.7014 17.9963 18.4373 17.8013 18.4033 17.8325C18.3693 17.8634 18.6643 19.6588 19.0587 21.8222C19.4531 23.9856 19.9681 26.8287 20.2032 28.1401C20.4382 29.4516 20.6608 30.5523 20.6979 30.5861C20.735 30.6199 20.7958 30.5095 20.8331 30.3407C20.9453 29.8316 21.3537 24.9052 21.3529 24.0704C21.3517 22.9073 21.5295 22.7871 21.9767 23.6489C22.7557 25.1506 22.7685 25.1022 22.7763 20.6184L22.7834 16.5514L23.4034 17.6533C23.9029 18.5409 24.0445 18.707 24.1312 18.5071C24.1904 18.3707 24.1258 16.7771 23.9875 14.9656C23.8493 13.1543 23.765 11.646 23.8003 11.6139C23.8354 11.5817 24.2325 12.1108 24.6828 12.7894C25.5951 14.1647 25.5995 14.1667 26.9009 13.8145C27.9221 13.5382 28.8975 13.0793 29.5156 12.5842C29.9678 12.2221 30.0187 12.1145 30.0212 11.5144C30.0228 11.1476 30.1175 10.0598 30.2316 9.0972C30.5177 6.68464 30.5093 5.35235 30.2057 4.94529C29.7917 4.39031 26.5877 0.930018 26.4884 0.930666C26.4364 0.931055 25.8588 1.10607 25.2049 1.31958C24.5509 1.53309 23.9593 1.70785 23.8901 1.70785C23.8209 1.70785 23.7642 1.35782 23.7642 0.930018V0.152191H21.0635C19.3386 0.152191 18.3628 0.199509 18.3628 0.283255ZM26.1342 3.71723C26.3281 5.01659 26.6051 9.12067 26.6063 10.7107C26.6068 11.6197 26.5618 11.8003 26.2228 12.2465L25.8384 12.7522L25.1156 12.0093C24.5155 11.3924 24.339 11.2817 24.0766 11.3577L23.7603 11.4492L23.7977 7.12956L23.8352 2.80977L24.617 2.65796C25.9499 2.39907 25.9361 2.38948 26.1342 3.71723Z" fill="white"/>
</svg>
