<svg width="20" height="16" viewBox="0 0 20 16" fill="none" xmlns="http://www.w3.org/2000/svg">
<path d="M10.2515 7.04212L16.8921 0.401489C17.3511 -0.0574951 18.0933 -0.0574951 18.5474 0.401489L19.6509 1.505C20.1099 1.96399 20.1099 2.70618 19.6509 3.16028L14.9487 7.87219L19.6558 12.5792C20.1147 13.0382 20.1147 13.7804 19.6558 14.2345L18.5522 15.3429C18.0933 15.8019 17.3511 15.8019 16.897 15.3429L10.2564 8.70227C9.79248 8.24329 9.79248 7.5011 10.2515 7.04212ZM0.876467 8.70227L7.51709 15.3429C7.97608 15.8019 8.71826 15.8019 9.17237 15.3429L10.2759 14.2394C10.7349 13.7804 10.7349 13.0382 10.2759 12.5841L5.57373 7.87219L10.2808 3.16516C10.7397 2.70618 10.7397 1.96399 10.2808 1.50989L9.17725 0.401489C8.71826 -0.0574951 7.97608 -0.0574951 7.52198 0.401489L0.88135 7.04212C0.417483 7.5011 0.417483 8.24329 0.876467 8.70227Z" fill="white"/>
</svg>
