<svg width="31" height="25" viewBox="0 0 31 25" fill="none" xmlns="http://www.w3.org/2000/svg">
<path d="M9.83882 11.856C8.13229 12.353 6.98747 13.8156 7.10257 15.3803C7.64478 14.7754 8.47283 14.2531 9.47592 13.9097L9.83882 11.856ZM4.55704 14.227L3.0479 5.68909C3.0341 5.61204 3.06121 5.56447 3.05931 5.56305C5.8065 4.03821 8.91516 3.23203 12.049 3.23203C12.1256 3.23203 12.2027 3.24011 12.2797 3.24106C12.9432 2.6004 13.7889 2.15522 14.7334 2.00445C15.6319 1.86081 16.5432 1.78804 17.453 1.75142C16.9779 1.08793 16.2887 0.598988 15.4664 0.467241C14.3292 0.286029 13.1862 0.196136 12.0486 0.196136C8.40244 0.196136 4.80484 1.11979 1.57918 2.91003C0.4296 3.54832 -0.18633 4.88006 0.0500543 6.21655L1.5592 14.7544C2.23601 18.5841 8.04335 21.5121 11.2833 21.5121C11.454 21.5121 11.6043 21.4902 11.7594 21.474C11.1163 20.6616 10.3829 19.5487 9.88067 18.2598C7.61624 17.6424 4.83623 15.8046 4.55704 14.227ZM9.19673 7.68908C9.16201 7.49312 9.09067 7.31476 9.00315 7.14687C8.61076 7.57065 8.02004 7.89597 7.32326 8.01821C6.62647 8.14092 5.95965 8.03723 5.4455 7.77231C5.42077 7.9597 5.41506 8.15185 5.44978 8.34781C5.63242 9.37991 6.61886 10.0691 7.65381 9.8874C8.68829 9.70571 9.37937 8.72117 9.19673 7.68908ZM28.8608 5.9464C24.6287 3.59778 19.756 2.74024 14.9736 3.50408C13.6747 3.71145 12.6393 4.75306 12.4034 6.08956L10.8942 14.6274C10.1622 18.7677 15.4259 23.9625 18.4238 24.4894C21.4216 25.0169 28.1488 21.9311 28.8808 17.7908L30.3899 9.25292C30.6263 7.91595 30.0104 6.58421 28.8608 5.9464ZM15.8649 10.5504C16.0476 9.51831 17.034 8.82914 18.069 9.0113C19.1039 9.19347 19.7945 10.1775 19.6124 11.2096C19.5776 11.4056 19.5063 11.5839 19.4188 11.7518C19.0264 11.3281 18.4357 11.0027 17.7389 10.8805C17.0421 10.7578 16.3753 10.8615 15.8611 11.1264C15.8359 10.9385 15.8302 10.7464 15.8649 10.5504ZM19.2166 20.0039C16.5684 19.5382 14.7686 17.1849 14.9817 14.6341C15.9615 15.8488 17.6552 16.83 19.7137 17.192C21.7722 17.5539 23.7003 17.2096 25.0373 16.4025C24.3629 18.8728 21.8644 20.4695 19.2166 20.0039ZM25.414 12.8058C25.0216 12.382 24.4304 12.0567 23.7336 11.9345C23.0368 11.8118 22.37 11.9154 21.8559 12.1804C21.8311 11.993 21.8254 11.8008 21.8602 11.6049C22.0428 10.5728 23.0292 9.88359 24.0642 10.0653C25.0987 10.2474 25.7897 11.2315 25.6076 12.2636C25.5729 12.46 25.5015 12.6384 25.414 12.8058Z" fill="white"/>
</svg>
