<svg width="31" height="27" viewBox="0 0 31 27" fill="none" xmlns="http://www.w3.org/2000/svg">
<path fill-rule="evenodd" clip-rule="evenodd" d="M28.4601 1.11741C28.0226 1.50592 27.2777 2.19331 26.8046 2.6449L25.9443 3.46617L24.9545 2.96698C21.7431 1.34749 17.5708 1.03247 14.5241 2.17918C12.3133 3.01138 10.0383 4.88703 8.69954 6.98115C7.95917 8.13947 6.50165 11.0532 5.46611 13.4457C3.74519 17.4215 3.02736 18.6202 0.975624 20.9445C-0.422532 22.5284 -0.357443 22.9445 1.42738 23.8334C7.4578 26.8365 18.817 27.2002 24.2681 24.5643C26.7713 23.354 28.5645 21.3823 29.3002 19.0312C29.8014 17.4292 29.8315 14.7367 29.3633 13.3616C28.1309 9.74147 25.4275 7.41895 21.9226 6.96921C18.6437 6.5484 15.5805 8.14098 14.2449 10.9607C13.7605 11.9833 13.7054 12.2561 13.7069 13.6208C13.7084 14.9907 13.762 15.2502 14.2481 16.2374C14.863 17.4866 15.6424 18.1415 17.2015 18.7192C19.8239 19.691 22.4016 18.7732 23.6034 16.4394C23.9481 15.7704 23.9627 14.3446 23.6317 13.7045C23.0392 12.5586 21.7752 12.1521 21.2582 12.9411C21.0026 13.3313 21.0031 13.3925 21.2641 13.7911C21.419 14.0273 21.6546 14.2624 21.788 14.3137C22.1579 14.4556 22.0813 15.4224 21.6488 16.0698C20.9106 17.1748 19.5947 17.4873 17.8551 16.9707C16.6806 16.6219 15.9098 15.8345 15.6394 14.7073C15.0932 12.4308 16.2548 10.2851 18.619 9.20259C19.4418 8.82602 19.7055 8.78935 21.1677 8.84805C22.5472 8.90338 22.9532 8.98899 23.8021 9.40375C26.6021 10.7718 28.2835 14.072 27.7934 17.2383C27.3051 20.3931 25.2216 22.5159 21.526 23.6246C20.0012 24.0819 17.5735 24.2436 16.3037 23.972C13.6006 23.3941 10.982 21.395 9.86425 19.0561C8.78868 16.8057 8.42926 13.3804 9.00363 10.8552C9.53477 8.51974 11.6492 5.7643 13.846 4.5451C15.4382 3.66127 16.628 3.37501 18.6668 3.3856C20.8737 3.39687 22.1057 3.70264 24.3536 4.79671C25.3504 5.2821 26.2131 5.60116 26.3824 5.54751C26.8285 5.40589 30.44 1.6805 30.44 1.36195C30.44 1.01296 29.852 0.411011 29.5113 0.411011C29.3703 0.411011 28.8974 0.728888 28.4601 1.11741ZM8.15175 19.6687C9.12035 21.6538 10.2346 22.9717 11.9476 24.159C12.3546 24.4409 12.3551 24.4446 11.9898 24.4533C11.2146 24.4716 7.59269 23.9277 6.30486 23.5994C5.56483 23.4107 4.37489 23.0309 3.66043 22.7554L2.36167 22.2547L3.53984 20.7982C4.3347 19.8157 5.05808 18.6481 5.76363 17.2092L6.80943 15.0764L7.11116 16.6157C7.30996 17.6294 7.66535 18.6718 8.15175 19.6687Z" fill="white"/>
</svg>
