<svg width="23" height="23" viewBox="0 0 23 23" fill="none" xmlns="http://www.w3.org/2000/svg">
<path d="M20.625 9.02844H13.5938V1.99719C13.5938 1.1344 12.894 0.434692 12.0312 0.434692H10.4688C9.60596 0.434692 8.90625 1.1344 8.90625 1.99719V9.02844H1.875C1.01221 9.02844 0.3125 9.72815 0.3125 10.5909V12.1534C0.3125 13.0162 1.01221 13.7159 1.875 13.7159H8.90625V20.7472C8.90625 21.61 9.60596 22.3097 10.4688 22.3097H12.0312C12.894 22.3097 13.5938 21.61 13.5938 20.7472V13.7159H20.625C21.4878 13.7159 22.1875 13.0162 22.1875 12.1534V10.5909C22.1875 9.72815 21.4878 9.02844 20.625 9.02844Z" fill="white"/>
</svg>
