<svg width="43" height="44" viewBox="0 0 43 44" fill="none" xmlns="http://www.w3.org/2000/svg">
<g clip-path="url(#clip0_18_520)">
<path d="M21.25 24.6562C27.8491 24.6562 33.2031 19.3022 33.2031 12.7031C33.2031 6.104 27.8491 0.75 21.25 0.75C14.6509 0.75 9.29688 6.104 9.29688 12.7031C9.29688 19.3022 14.6509 24.6562 21.25 24.6562ZM31.875 27.3125H27.3013C25.4585 28.1592 23.4082 28.6406 21.25 28.6406C19.0918 28.6406 17.0498 28.1592 15.1987 27.3125H10.625C4.75635 27.3125 0 32.0688 0 37.9375V39.2656C0 41.4653 1.78467 43.25 3.98438 43.25H38.5156C40.7153 43.25 42.5 41.4653 42.5 39.2656V37.9375C42.5 32.0688 37.7437 27.3125 31.875 27.3125Z" fill="black"/>
</g>
<defs>
<clipPath id="clip0_18_520">
<rect width="42.5" height="42.5" fill="white" transform="translate(0 0.75)"/>
</clipPath>
</defs>
</svg>
